<svg xmlns="http://www.w3.org/2000/svg" style="display:none">

  <!-- ═══════════════════════════════════════════════════════
       ESCALAÇÃO FC — SVG SPRITE
       Uso: <svg><use href="/assets/icons/icons.svg#nome"/></svg>
       Todos usam stroke="currentColor" — cor controlada por CSS
  ═══════════════════════════════════════════════════════ -->

  <!-- ── NAVEGAÇÃO ── -->
  <symbol id="nav-home" viewBox="0 0 24 24" fill="none" stroke="currentColor" stroke-width="1.8" stroke-linecap="round" stroke-linejoin="round">
    <!-- Escudo (Times) -->
    <path d="M12 2L3 6.5V12c0 4.8 3.8 9.1 9 10 5.2-.9 9-5.2 9-10V6.5L12 2Z"/>
    <path d="M9 12l2 2 4-4"/>
  </symbol>

  <symbol id="nav-tactic" viewBox="0 0 24 24" fill="none" stroke="currentColor" stroke-width="1.8" stroke-linecap="round" stroke-linejoin="round">
    <!-- Campo de futebol (Escalação) -->
    <rect x="2" y="3" width="20" height="18" rx="2.5"/>
    <line x1="12" y1="3" x2="12" y2="21"/>
    <circle cx="12" cy="12" r="3"/>
    <rect x="2" y="8" width="4" height="8"/>
    <rect x="18" y="8" width="4" height="8"/>
  </symbol>

  <symbol id="nav-office" viewBox="0 0 24 24" fill="none" stroke="currentColor" stroke-width="1.8" stroke-linecap="round" stroke-linejoin="round">
    <!-- Prancheta com gráfico (Escritório) -->
    <rect x="6" y="2" width="12" height="3" rx="1.5"/>
    <path d="M8 2H6a2 2 0 0 0-2 2v15a2 2 0 0 0 2 2h12a2 2 0 0 0 2-2V4a2 2 0 0 0-2-2h-2"/>
    <line x1="9" y1="17" x2="9" y2="13"/>
    <line x1="12" y1="17" x2="12" y2="10"/>
    <line x1="15" y1="17" x2="15" y2="12"/>
  </symbol>

  <!-- ── AÇÕES / UI ── -->
  <symbol id="plus" viewBox="0 0 24 24" fill="none" stroke="currentColor" stroke-width="2.5" stroke-linecap="round">
    <line x1="12" y1="5" x2="12" y2="19"/>
    <line x1="5" y1="12" x2="19" y2="12"/>
  </symbol>

  <symbol id="edit" viewBox="0 0 24 24" fill="none" stroke="currentColor" stroke-width="2" stroke-linecap="round">
    <path d="M11 4H4a2 2 0 0 0-2 2v14a2 2 0 0 0 2 2h14a2 2 0 0 0 2-2v-7"/>
    <path d="M18.5 2.5a2.121 2.121 0 0 1 3 3L12 15l-4 1 1-4 9.5-9.5z"/>
  </symbol>

  <symbol id="trash" viewBox="0 0 24 24" fill="none" stroke="currentColor" stroke-width="2" stroke-linecap="round">
    <polyline points="3 6 5 6 21 6"/>
    <path d="M19 6l-1 14H6L5 6"/>
    <path d="M10 11v6"/><path d="M14 11v6"/>
    <path d="M9 6V4h6v2"/>
  </symbol>

  <symbol id="close" viewBox="0 0 24 24" fill="none" stroke="currentColor" stroke-width="2" stroke-linecap="round">
    <line x1="18" y1="6" x2="6" y2="18"/>
    <line x1="6" y1="6" x2="18" y2="18"/>
  </symbol>

  <symbol id="back" viewBox="0 0 24 24" fill="none" stroke="currentColor" stroke-width="2.5" stroke-linecap="round">
    <polyline points="15 18 9 12 15 6"/>
  </symbol>

  <symbol id="chevron-left" viewBox="0 0 24 24" fill="none" stroke="currentColor" stroke-width="2.5" stroke-linecap="round">
    <polyline points="15 18 9 12 15 6"/>
  </symbol>

  <symbol id="chevron-right" viewBox="0 0 24 24" fill="none" stroke="currentColor" stroke-width="2.5" stroke-linecap="round">
    <polyline points="9 18 15 12 9 6"/>
  </symbol>

  <symbol id="chevron-down" viewBox="0 0 24 24" fill="none" stroke="currentColor" stroke-width="2.5" stroke-linecap="round" stroke-linejoin="round">
    <polyline points="6 9 12 15 18 9"/>
  </symbol>

  <symbol id="save" viewBox="0 0 24 24" fill="none" stroke="currentColor" stroke-width="2" stroke-linecap="round">
    <path d="M19 21H5a2 2 0 0 1-2-2V5a2 2 0 0 1 2-2h11l5 5v11a2 2 0 0 1-2 2z"/>
    <polyline points="17 21 17 13 7 13 7 21"/>
    <polyline points="7 3 7 8 15 8"/>
  </symbol>

  <symbol id="share" viewBox="0 0 24 24" fill="none" stroke="currentColor" stroke-width="2" stroke-linecap="round">
    <circle cx="18" cy="5" r="3"/>
    <circle cx="6" cy="12" r="3"/>
    <circle cx="18" cy="19" r="3"/>
    <line x1="8.59" y1="13.51" x2="15.42" y2="17.49"/>
    <line x1="15.41" y1="6.51" x2="8.59" y2="10.49"/>
  </symbol>

  <symbol id="download" viewBox="0 0 24 24" fill="none" stroke="currentColor" stroke-width="2" stroke-linecap="round">
    <path d="M21 15v4a2 2 0 0 1-2 2H5a2 2 0 0 1-2-2v-4"/>
    <polyline points="7 10 12 15 17 10"/>
    <line x1="12" y1="15" x2="12" y2="3"/>
  </symbol>

  <symbol id="upload" viewBox="0 0 24 24" fill="none" stroke="currentColor" stroke-width="2" stroke-linecap="round">
    <path d="M21 15v4a2 2 0 0 1-2 2H5a2 2 0 0 1-2-2v-4"/>
    <polyline points="17 8 12 3 7 8"/>
    <line x1="12" y1="3" x2="12" y2="15"/>
  </symbol>

  <symbol id="send" viewBox="0 0 24 24" fill="none" stroke="currentColor" stroke-width="2" stroke-linecap="round">
    <line x1="22" y1="2" x2="11" y2="13"/>
    <polygon points="22 2 15 22 11 13 2 9 22 2"/>
  </symbol>

  <symbol id="search" viewBox="0 0 24 24" fill="none" stroke="currentColor" stroke-width="2" stroke-linecap="round">
    <circle cx="11" cy="11" r="8"/>
    <line x1="21" y1="21" x2="16.65" y2="16.65"/>
  </symbol>

  <symbol id="refresh" viewBox="0 0 24 24" fill="none" stroke="currentColor" stroke-width="2" stroke-linecap="round" stroke-linejoin="round">
    <polyline points="23 4 23 10 17 10"/>
    <path d="M20.49 15a9 9 0 1 1-2.12-9.36L23 10"/>
  </symbol>

  <symbol id="shuffle" viewBox="0 0 24 24" fill="none" stroke="currentColor" stroke-width="2" stroke-linecap="round" stroke-linejoin="round">
    <polyline points="16 3 21 3 21 8"/>
    <line x1="4" y1="20" x2="21" y2="3"/>
    <polyline points="21 16 21 21 16 21"/>
    <line x1="15" y1="15" x2="21" y2="21"/>
    <line x1="4" y1="4" x2="9" y2="9"/>
  </symbol>

  <symbol id="repeat" viewBox="0 0 24 24" fill="none" stroke="currentColor" stroke-width="2" stroke-linecap="round" stroke-linejoin="round">
    <polyline points="17 1 21 5 17 9"/>
    <path d="M3 11V9a4 4 0 0 1 4-4h14"/>
    <polyline points="7 23 3 19 7 15"/>
    <path d="M21 13v2a4 4 0 0 1-4 4H3"/>
  </symbol>

  <symbol id="link" viewBox="0 0 24 24" fill="none" stroke="currentColor" stroke-width="2" stroke-linecap="round" stroke-linejoin="round">
    <path d="M10 13a5 5 0 0 0 7.54.54l3-3a5 5 0 0 0-7.07-7.07l-1.72 1.71"/>
    <path d="M14 11a5 5 0 0 0-7.54-.54l-3 3a5 5 0 0 0 7.07 7.07l1.71-1.71"/>
  </symbol>

  <symbol id="import" viewBox="0 0 24 24" fill="none" stroke="currentColor" stroke-width="1.8" stroke-linecap="round" stroke-linejoin="round">
    <path d="M21 15v4a2 2 0 0 1-2 2H5a2 2 0 0 1-2-2v-4"/>
    <polyline points="7 10 12 15 17 10"/>
    <line x1="12" y1="15" x2="12" y2="3"/>
  </symbol>

  <symbol id="folder-open" viewBox="0 0 24 24" fill="none" stroke="currentColor" stroke-width="2" stroke-linecap="round" stroke-linejoin="round">
    <path d="M22 19a2 2 0 0 1-2 2H4a2 2 0 0 1-2-2V5a2 2 0 0 1 2-2h5l2 3h9a2 2 0 0 1 2 2z"/>
    <polyline points="8 14 12 18 16 14"/>
    <line x1="12" y1="10" x2="12" y2="18"/>
  </symbol>

  <symbol id="copy" viewBox="0 0 24 24" fill="none" stroke="currentColor" stroke-width="2" stroke-linecap="round" stroke-linejoin="round">
    <rect x="9" y="9" width="13" height="13" rx="2"/>
    <path d="M5 15H4a2 2 0 0 1-2-2V4a2 2 0 0 1 2-2h9a2 2 0 0 1 2 2v1"/>
  </symbol>

  <!-- ── STATUS / FEEDBACK ── -->
  <symbol id="check" viewBox="0 0 24 24" fill="none" stroke="currentColor" stroke-width="2.5" stroke-linecap="round" stroke-linejoin="round">
    <polyline points="20 6 9 17 4 12"/>
  </symbol>

  <symbol id="check-circle" viewBox="0 0 24 24" fill="none" stroke="currentColor" stroke-width="2" stroke-linecap="round" stroke-linejoin="round">
    <path d="M22 11.08V12a10 10 0 1 1-5.93-9.14"/>
    <polyline points="22 4 12 14.01 9 11.01"/>
  </symbol>

  <symbol id="x-circle" viewBox="0 0 24 24" fill="none" stroke="currentColor" stroke-width="2" stroke-linecap="round">
    <circle cx="12" cy="12" r="10"/>
    <line x1="15" y1="9" x2="9" y2="15"/>
    <line x1="9" y1="9" x2="15" y2="15"/>
  </symbol>

  <symbol id="warning" viewBox="0 0 24 24" fill="none" stroke="currentColor" stroke-width="2" stroke-linecap="round" stroke-linejoin="round">
    <path d="M10.29 3.86L1.82 18a2 2 0 0 0 1.71 3h16.94a2 2 0 0 0 1.71-3L13.71 3.86a2 2 0 0 0-3.42 0z"/>
    <line x1="12" y1="9" x2="12" y2="13"/>
    <line x1="12" y1="17" x2="12.01" y2="17"/>
  </symbol>

  <symbol id="info" viewBox="0 0 24 24" fill="none" stroke="currentColor" stroke-width="2" stroke-linecap="round">
    <circle cx="12" cy="12" r="10"/>
    <line x1="12" y1="8" x2="12" y2="12"/>
    <circle cx="12" cy="16" r="0.8" fill="currentColor"/>
  </symbol>

  <symbol id="lock" viewBox="0 0 24 24" fill="none" stroke="currentColor" stroke-width="2" stroke-linecap="round" stroke-linejoin="round">
    <rect x="3" y="11" width="18" height="11" rx="2" ry="2"/>
    <path d="M7 11V7a5 5 0 0 1 10 0v4"/>
  </symbol>

  <symbol id="eye" viewBox="0 0 24 24" fill="none" stroke="currentColor" stroke-width="2" stroke-linecap="round">
    <path d="M1 12s4-8 11-8 11 8 11 8-4 8-11 8-11-8-11-8z"/>
    <circle cx="12" cy="12" r="3"/>
  </symbol>

  <symbol id="pin" viewBox="0 0 24 24" fill="none" stroke="currentColor" stroke-width="2" stroke-linecap="round" stroke-linejoin="round">
    <path d="M21 10c0 7-9 13-9 13s-9-6-9-13a9 9 0 0 1 18 0z"/>
    <circle cx="12" cy="10" r="3"/>
  </symbol>

  <!-- ── JOGADORES / TIMES ── -->
  <symbol id="shield" viewBox="0 0 24 24" fill="none" stroke="currentColor" stroke-width="2" stroke-linecap="round">
    <path d="M12 22s8-4 8-10V5l-8-3-8 3v7c0 6 8 10 8 10z"/>
  </symbol>

  <symbol id="users" viewBox="0 0 24 24" fill="none" stroke="currentColor" stroke-width="2" stroke-linecap="round">
    <path d="M17 21v-2a4 4 0 0 0-4-4H5a4 4 0 0 0-4 4v2"/>
    <circle cx="9" cy="7" r="4"/>
    <path d="M23 21v-2a4 4 0 0 0-3-3.87"/>
    <path d="M16 3.13a4 4 0 0 1 0 7.75"/>
  </symbol>

  <symbol id="players" viewBox="0 0 24 24" fill="none" stroke="currentColor" stroke-width="1.8" stroke-linecap="round" stroke-linejoin="round">
    <circle cx="9" cy="7" r="4"/>
    <path d="M3 21v-2a4 4 0 0 1 4-4h4a4 4 0 0 1 4 4v2"/>
    <circle cx="18" cy="8" r="3"/>
    <path d="M21 21v-1.5a3 3 0 0 0-2-2.83"/>
  </symbol>

  <symbol id="person" viewBox="0 0 24 24" fill="none" stroke="currentColor" stroke-width="2" stroke-linecap="round">
    <path d="M20 21v-2a4 4 0 0 0-4-4H8a4 4 0 0 0-4 4v2"/>
    <circle cx="12" cy="7" r="4"/>
  </symbol>

  <symbol id="jersey" viewBox="0 0 24 24" fill="none" stroke="currentColor" stroke-width="2" stroke-linecap="round" stroke-linejoin="round">
    <path d="M16 3 20 7 17 10 17 21 7 21 7 10 4 7 8 3 10 5 12 5 14 5Z"/>
  </symbol>

  <symbol id="ticket" viewBox="0 0 24 24" fill="none" stroke="currentColor" stroke-width="2" stroke-linecap="round" stroke-linejoin="round">
    <path d="M15 5v2m0 4v2m0 4v2M5 5a2 2 0 0 0-2 2v3a2 2 0 0 1 0 4v3a2 2 0 0 0 2 2h14a2 2 0 0 0 2-2v-3a2 2 0 0 1 0-4V7a2 2 0 0 0-2-2H5z"/>
  </symbol>

  <symbol id="crown" viewBox="0 0 24 24" fill="none" stroke="currentColor" stroke-width="2" stroke-linecap="round" stroke-linejoin="round">
    <path d="M2 20h20"/>
    <path d="M2 20l3-12 5 6 4-8 4 8 3-6 3 12"/>
  </symbol>

  <symbol id="captain-c" viewBox="0 0 24 24" fill="none" stroke="currentColor" stroke-width="2" stroke-linecap="round">
    <circle cx="12" cy="12" r="10"/>
    <path d="M15 9.5a4 4 0 1 0 0 5"/>
  </symbol>

  <!-- ── ESPORTES / JOGO ── -->
  <symbol id="soccer-ball" viewBox="0 0 24 24" fill="none" stroke="currentColor" stroke-width="1.5" stroke-linecap="round" stroke-linejoin="round">
    <circle cx="12" cy="12" r="10"/>
    <path d="M12 2a15.3 15.3 0 0 1 4 10 15.3 15.3 0 0 1-4 10 15.3 15.3 0 0 1-4-10 15.3 15.3 0 0 1 4-10z"/>
    <path d="M2 12h20"/>
  </symbol>

  <symbol id="goalkeeper" viewBox="0 0 24 24" fill="none" stroke="currentColor" stroke-width="2" stroke-linecap="round" stroke-linejoin="round">
    <!-- Luva de goleiro -->
    <path d="M18 8h1a4 4 0 0 1 0 8h-1"/>
    <path d="M5 8H4a4 4 0 0 0 0 8h1"/>
    <rect x="5" y="5" width="14" height="14" rx="3"/>
    <line x1="9" y1="12" x2="15" y2="12"/>
    <line x1="12" y1="9" x2="12" y2="15"/>
  </symbol>

  <symbol id="trophy" viewBox="0 0 24 24" fill="none" stroke="currentColor" stroke-width="2" stroke-linecap="round">
    <path d="M6 9H4.5a2.5 2.5 0 0 1 0-5H6"/>
    <path d="M18 9h1.5a2.5 2.5 0 0 0 0-5H18"/>
    <path d="M4 22h16"/>
    <path d="M10 14.66V17c0 .55-.47.98-.97 1.21C7.85 18.75 7 20.24 7 22"/>
    <path d="M14 14.66V17c0 .55.47.98.97 1.21C16.15 18.75 17 20.24 17 22"/>
    <path d="M18 2H6v7a6 6 0 0 0 12 0V2z"/>
  </symbol>

  <symbol id="medal" viewBox="0 0 24 24" fill="none" stroke="currentColor" stroke-width="2" stroke-linecap="round" stroke-linejoin="round">
    <circle cx="12" cy="15" r="7"/>
    <path d="M8.56 2.75c4.37 6.03 6.02 9.42 8.03 17.72m2.54-15.38c-3.72 4.35-8.94 5.66-16.88 5.85m19.5 1.9c-3.5-.93-6.63-.82-8.94 0-2.58.92-5.01 2.86-7.44 6.32"/>
  </symbol>

  <symbol id="gold-medal" viewBox="0 0 24 24" fill="none" stroke="currentColor" stroke-width="2" stroke-linecap="round" stroke-linejoin="round">
    <circle cx="12" cy="14" r="7"/>
    <path d="M8 6l4-4 4 4"/>
    <path d="M9 10h6"/>
    <text x="12" y="18" text-anchor="middle" font-size="6" fill="currentColor" stroke="none" font-weight="bold">1</text>
  </symbol>

  <symbol id="target" viewBox="0 0 24 24" fill="none" stroke="currentColor" stroke-width="2" stroke-linecap="round">
    <circle cx="12" cy="12" r="10"/>
    <circle cx="12" cy="12" r="6"/>
    <circle cx="12" cy="12" r="2"/>
  </symbol>

  <symbol id="balance" viewBox="0 0 24 24" fill="none" stroke="currentColor" stroke-width="2" stroke-linecap="round" stroke-linejoin="round">
    <line x1="12" y1="3" x2="12" y2="21"/>
    <path d="M6 9h12"/>
    <path d="M3 6l3 3-3 3"/>
    <path d="M21 6l-3 3 3 3"/>
  </symbol>

  <symbol id="dice" viewBox="0 0 24 24" fill="none" stroke="currentColor" stroke-width="2" stroke-linecap="round" stroke-linejoin="round">
    <rect x="2" y="2" width="20" height="20" rx="4"/>
    <circle cx="8" cy="8" r="1.2" fill="currentColor" stroke="none"/>
    <circle cx="16" cy="8" r="1.2" fill="currentColor" stroke="none"/>
    <circle cx="8" cy="16" r="1.2" fill="currentColor" stroke="none"/>
    <circle cx="16" cy="16" r="1.2" fill="currentColor" stroke="none"/>
    <circle cx="12" cy="12" r="1.2" fill="currentColor" stroke="none"/>
  </symbol>

  <symbol id="lightning" viewBox="0 0 24 24" fill="none" stroke="currentColor" stroke-width="2" stroke-linecap="round" stroke-linejoin="round">
    <polygon points="13 2 3 14 12 14 11 22 21 10 12 10 13 2"/>
  </symbol>

  <symbol id="fire" viewBox="0 0 24 24" fill="none" stroke="currentColor" stroke-width="2" stroke-linecap="round" stroke-linejoin="round">
    <path d="M8.5 14.5A2.5 2.5 0 0 0 11 12c0-1.38-.5-2-1-3-1.072-2.143-.224-4.054 2-6 .5 2.5 2 4.9 4 6.5 2 1.6 3 3.5 3 5.5a7 7 0 1 1-14 0c0-1.153.433-2.294 1-3a2.5 2.5 0 0 0 2.5 2.5z"/>
  </symbol>

  <symbol id="star" viewBox="0 0 24 24" fill="currentColor" stroke="currentColor" stroke-width="1">
    <polygon points="12 2 15.09 8.26 22 9.27 17 14.14 18.18 21.02 12 17.77 5.82 21.02 7 14.14 2 9.27 8.91 8.26 12 2"/>
  </symbol>

  <symbol id="star-outline" viewBox="0 0 24 24" fill="none" stroke="currentColor" stroke-width="1.5">
    <polygon points="12 2 15.09 8.26 22 9.27 17 14.14 18.18 21.02 12 17.77 5.82 21.02 7 14.14 2 9.27 8.91 8.26 12 2"/>
  </symbol>

  <symbol id="stadium" viewBox="0 0 24 24" fill="none" stroke="currentColor" stroke-width="2" stroke-linecap="round" stroke-linejoin="round">
    <ellipse cx="12" cy="10" rx="10" ry="5"/>
    <path d="M2 10v6c0 2.76 4.48 5 10 5s10-2.24 10-5v-6"/>
    <ellipse cx="12" cy="10" rx="4" ry="2"/>
  </symbol>

  <!-- ── DATA / TEMPO ── -->
  <symbol id="calendar" viewBox="0 0 24 24" fill="none" stroke="currentColor" stroke-width="1.8" stroke-linecap="round" stroke-linejoin="round">
    <rect x="3" y="4" width="18" height="18" rx="2.5"/>
    <line x1="16" y1="2" x2="16" y2="6"/>
    <line x1="8" y1="2" x2="8" y2="6"/>
    <line x1="3" y1="10" x2="21" y2="10"/>
    <circle cx="8" cy="15" r="1" fill="currentColor" stroke="none"/>
    <circle cx="12" cy="15" r="1" fill="currentColor" stroke="none"/>
    <circle cx="16" cy="15" r="1" fill="currentColor" stroke="none"/>
  </symbol>

  <symbol id="clock" viewBox="0 0 24 24" fill="none" stroke="currentColor" stroke-width="2" stroke-linecap="round">
    <circle cx="12" cy="12" r="10"/>
    <polyline points="12 6 12 12 16 14"/>
  </symbol>

  <symbol id="stopwatch" viewBox="0 0 24 24" fill="none" stroke="currentColor" stroke-width="2" stroke-linecap="round" stroke-linejoin="round">
    <circle cx="12" cy="13" r="8"/>
    <path d="M12 9v4l2 2"/>
    <path d="M9 3h6"/>
    <path d="M12 3v2"/>
  </symbol>

  <!-- ── ESTATÍSTICAS / DADOS ── -->
  <symbol id="chart-bar" viewBox="0 0 24 24" fill="none" stroke="currentColor" stroke-width="1.8" stroke-linecap="round" stroke-linejoin="round">
    <line x1="18" y1="20" x2="18" y2="10"/>
    <line x1="12" y1="20" x2="12" y2="4"/>
    <line x1="6" y1="20" x2="6" y2="14"/>
    <line x1="3" y1="20" x2="21" y2="20"/>
  </symbol>

  <symbol id="list" viewBox="0 0 24 24" fill="none" stroke="currentColor" stroke-width="2" stroke-linecap="round">
    <line x1="8" y1="6" x2="21" y2="6"/>
    <line x1="8" y1="12" x2="21" y2="12"/>
    <line x1="8" y1="18" x2="21" y2="18"/>
    <line x1="3" y1="6" x2="3.01" y2="6"/>
    <line x1="3" y1="12" x2="3.01" y2="12"/>
    <line x1="3" y1="18" x2="3.01" y2="18"/>
  </symbol>

  <symbol id="clipboard" viewBox="0 0 24 24" fill="none" stroke="currentColor" stroke-width="2" stroke-linecap="round" stroke-linejoin="round">
    <path d="M16 4h2a2 2 0 0 1 2 2v14a2 2 0 0 1-2 2H6a2 2 0 0 1-2-2V6a2 2 0 0 1 2-2h2"/>
    <rect x="8" y="2" width="8" height="4" rx="1" ry="1"/>
    <line x1="9" y1="12" x2="15" y2="12"/>
    <line x1="9" y1="16" x2="13" y2="16"/>
  </symbol>

  <symbol id="memo" viewBox="0 0 24 24" fill="none" stroke="currentColor" stroke-width="2" stroke-linecap="round" stroke-linejoin="round">
    <path d="M14 2H6a2 2 0 0 0-2 2v16a2 2 0 0 0 2 2h12a2 2 0 0 0 2-2V8z"/>
    <polyline points="14 2 14 8 20 8"/>
    <line x1="16" y1="13" x2="8" y2="13"/>
    <line x1="16" y1="17" x2="8" y2="17"/>
    <line x1="10" y1="9" x2="8" y2="9"/>
  </symbol>

  <!-- ── FINANCEIRO ── -->
  <symbol id="money-bag" viewBox="0 0 24 24" fill="none" stroke="currentColor" stroke-width="2" stroke-linecap="round" stroke-linejoin="round">
    <path d="M12 2c1.5 0 3 .5 3 2s-1.5 2-3 2-3-.5-3-2 1.5-2 3-2z"/>
    <path d="M6 6c0 0-2 1-2 6s2 10 8 10 8-5 8-10-2-6-2-6"/>
    <line x1="12" y1="12" x2="12" y2="16"/>
    <line x1="10" y1="14" x2="14" y2="14"/>
  </symbol>

  <symbol id="banknote" viewBox="0 0 24 24" fill="none" stroke="currentColor" stroke-width="2" stroke-linecap="round" stroke-linejoin="round">
    <rect x="1" y="4" width="22" height="16" rx="2" ry="2"/>
    <line x1="1" y1="10" x2="23" y2="10"/>
    <circle cx="12" cy="15" r="2"/>
  </symbol>

  <symbol id="receipt" viewBox="0 0 24 24" fill="none" stroke="currentColor" stroke-width="2" stroke-linecap="round" stroke-linejoin="round">
    <path d="M4 2v20l2-1 2 1 2-1 2 1 2-1 2 1 2-1 2 1V2l-2 1-2-1-2 1-2-1-2 1-2-1-2 1-2-1z"/>
    <line x1="8" y1="9" x2="16" y2="9"/>
    <line x1="8" y1="13" x2="16" y2="13"/>
    <line x1="8" y1="17" x2="12" y2="17"/>
  </symbol>

  <symbol id="credit-card" viewBox="0 0 24 24" fill="none" stroke="currentColor" stroke-width="2" stroke-linecap="round" stroke-linejoin="round">
    <rect x="1" y="4" width="22" height="16" rx="2" ry="2"/>
    <line x1="1" y1="10" x2="23" y2="10"/>
  </symbol>

  <!-- ── LOCAL ── -->
  <symbol id="map-pin" viewBox="0 0 24 24" fill="none" stroke="currentColor" stroke-width="2" stroke-linecap="round">
    <path d="M21 10c0 7-9 13-9 13s-9-6-9-13a9 9 0 0 1 18 0z"/>
    <circle cx="12" cy="10" r="3"/>
  </symbol>

  <symbol id="home" viewBox="0 0 24 24" fill="none" stroke="currentColor" stroke-width="2" stroke-linecap="round">
    <path d="M3 9l9-7 9 7v11a2 2 0 0 1-2 2H5a2 2 0 0 1-2-2z"/>
    <polyline points="9 22 9 12 15 12 15 22"/>
  </symbol>

  <symbol id="airplane" viewBox="0 0 24 24" fill="none" stroke="currentColor" stroke-width="2" stroke-linecap="round" stroke-linejoin="round">
    <path d="M21 16v-2l-8-5V3.5a1.5 1.5 0 0 0-3 0V9l-8 5v2l8-2.5V19l-2 1.5V22l3.5-1 3.5 1v-1.5L13 19v-5.5z"/>
  </symbol>

  <!-- ── INTERFACE / MISC ── -->
  <symbol id="settings" viewBox="0 0 24 24" fill="none" stroke="currentColor" stroke-width="2" stroke-linecap="round" stroke-linejoin="round">
    <circle cx="12" cy="12" r="3"/>
    <path d="M19.4 15a1.65 1.65 0 0 0 .33 1.82l.06.06a2 2 0 0 1-2.83 2.83l-.06-.06a1.65 1.65 0 0 0-1.82-.33 1.65 1.65 0 0 0-1 1.51V21a2 2 0 0 1-4 0v-.09A1.65 1.65 0 0 0 9 19.4a1.65 1.65 0 0 0-1.82.33l-.06.06a2 2 0 0 1-2.83-2.83l.06-.06A1.65 1.65 0 0 0 4.68 15a1.65 1.65 0 0 0-1.51-1H3a2 2 0 0 1 0-4h.09A1.65 1.65 0 0 0 4.6 9a1.65 1.65 0 0 0-.33-1.82l-.06-.06a2 2 0 0 1 2.83-2.83l.06.06A1.65 1.65 0 0 0 9 4.68a1.65 1.65 0 0 0 1-1.51V3a2 2 0 0 1 4 0v.09a1.65 1.65 0 0 0 1 1.51 1.65 1.65 0 0 0 1.82-.33l.06-.06a2 2 0 0 1 2.83 2.83l-.06.06A1.65 1.65 0 0 0 19.4 9a1.65 1.65 0 0 0 1.51 1H21a2 2 0 0 1 0 4h-.09a1.65 1.65 0 0 0-1.51 1z"/>
  </symbol>

  <symbol id="image" viewBox="0 0 24 24" fill="none" stroke="currentColor" stroke-width="2" stroke-linecap="round" stroke-linejoin="round">
    <rect x="3" y="3" width="18" height="18" rx="2"/>
    <circle cx="9" cy="9" r="2"/>
    <path d="M21 15l-5-5L5 21"/>
  </symbol>

  <symbol id="camera" viewBox="0 0 24 24" fill="none" stroke="currentColor" stroke-width="1.5" stroke-linecap="round">
    <path d="M23 19a2 2 0 0 1-2 2H3a2 2 0 0 1-2-2V8a2 2 0 0 1 2-2h4l2-3h6l2 3h4a2 2 0 0 1 2 2z"/>
    <circle cx="12" cy="13" r="4"/>
  </symbol>

  <symbol id="gallery" viewBox="0 0 24 24" fill="none" stroke="currentColor" stroke-width="1.5" stroke-linecap="round">
    <rect x="3" y="3" width="18" height="18" rx="2"/>
    <circle cx="8.5" cy="8.5" r="1.5"/>
    <polyline points="21 15 16 10 5 21"/>
  </symbol>

  <symbol id="bell" viewBox="0 0 24 24" fill="none" stroke="currentColor" stroke-width="2" stroke-linecap="round">
    <path d="M18 8A6 6 0 0 0 6 8c0 7-3 9-3 9h18s-3-2-3-9"/>
    <path d="M13.73 21a2 2 0 0 1-3.46 0"/>
  </symbol>

  <symbol id="bulb" viewBox="0 0 24 24" fill="none" stroke="currentColor" stroke-width="2" stroke-linecap="round" stroke-linejoin="round">
    <line x1="9" y1="18" x2="15" y2="18"/>
    <line x1="10" y1="22" x2="14" y2="22"/>
    <path d="M15.09 14c.18-.98.65-1.74 1.41-2.5A4.65 4.65 0 0 0 18 8 6 6 0 0 0 6 8c0 1 .23 2.23 1.5 3.5A4.61 4.61 0 0 1 8.91 14"/>
  </symbol>

  <symbol id="palette" viewBox="0 0 24 24" fill="none" stroke="currentColor" stroke-width="2" stroke-linecap="round">
    <circle cx="12" cy="12" r="10"/>
    <circle cx="8" cy="10" r="1" fill="currentColor"/>
    <circle cx="16" cy="10" r="1" fill="currentColor"/>
    <circle cx="12" cy="16" r="1" fill="currentColor"/>
  </symbol>

  <symbol id="tag" viewBox="0 0 24 24" fill="none" stroke="currentColor" stroke-width="2" stroke-linecap="round" stroke-linejoin="round">
    <path d="M20.59 13.41l-7.17 7.17a2 2 0 0 1-2.83 0L2 12V2h10l8.59 8.59a2 2 0 0 1 0 2.82z"/>
    <line x1="7" y1="7" x2="7.01" y2="7"/>
  </symbol>

  <symbol id="cloud" viewBox="0 0 24 24" fill="none" stroke="currentColor" stroke-width="2" stroke-linecap="round">
    <path d="M18 10h-1.26A8 8 0 1 0 9 20h9a5 5 0 0 0 0-10z"/>
  </symbol>

  <symbol id="moon" viewBox="0 0 24 24" fill="none" stroke="currentColor" stroke-width="2" stroke-linecap="round">
    <path d="M21 12.79A9 9 0 1 1 11.21 3 7 7 0 0 0 21 12.79z"/>
  </symbol>

  <symbol id="sun" viewBox="0 0 24 24" fill="none" stroke="currentColor" stroke-width="2" stroke-linecap="round">
    <circle cx="12" cy="12" r="5"/>
    <line x1="12" y1="1" x2="12" y2="3"/>
    <line x1="12" y1="21" x2="12" y2="23"/>
    <line x1="4.22" y1="4.22" x2="5.64" y2="5.64"/>
    <line x1="18.36" y1="18.36" x2="19.78" y2="19.78"/>
    <line x1="1" y1="12" x2="3" y2="12"/>
    <line x1="21" y1="12" x2="23" y2="12"/>
    <line x1="4.22" y1="19.78" x2="5.64" y2="18.36"/>
    <line x1="18.36" y1="5.64" x2="19.78" y2="4.22"/>
  </symbol>

  <symbol id="radio" viewBox="0 0 24 24" fill="none" stroke="currentColor" stroke-width="2" stroke-linecap="round" stroke-linejoin="round">
    <rect x="2" y="8" width="20" height="14" rx="2"/>
    <path d="M6.01 8 17 3"/>
    <circle cx="7" cy="15" r="2"/>
    <line x1="13" y1="12" x2="19" y2="12"/>
    <line x1="13" y1="16" x2="17" y2="16"/>
  </symbol>

  <symbol id="party" viewBox="0 0 24 24" fill="none" stroke="currentColor" stroke-width="2" stroke-linecap="round" stroke-linejoin="round">
    <path d="M5.8 11.3 2 22l10.7-3.79"/>
    <path d="M4 3h.01"/>
    <path d="M22 8h.01"/>
    <path d="M15 2h.01"/>
    <path d="M22 20h.01"/>
    <path d="m22 2-2.24.75a2.9 2.9 0 0 0-1.96 3.12c.1.86-.57 1.63-1.45 1.63h-.38c-.86 0-1.6.6-1.76 1.44L14 10"/>
    <path d="m22 13-.82-.33c-.86-.34-1.82.2-1.98 1.11c-.11.7-.72 1.22-1.43 1.22H17"/>
    <path d="m11 2 .33.82c.34.86-.2 1.82-1.11 1.98C9.52 4.9 9 5.52 9 6.23V7"/>
    <path d="M11 13c1.93 1.93 2.83 4.17 2 5-.83.83-3.07-.07-5-2-1.93-1.93-2.83-4.17-2-5 .83-.83 3.07.07 5 2z"/>
  </symbol>

  <symbol id="sad" viewBox="0 0 24 24" fill="none" stroke="currentColor" stroke-width="2" stroke-linecap="round">
    <circle cx="12" cy="12" r="10"/>
    <path d="M16 16s-1.5-2-4-2-4 2-4 2"/>
    <line x1="9" y1="9" x2="9.01" y2="9"/>
    <line x1="15" y1="9" x2="15.01" y2="9"/>
  </symbol>

  <symbol id="gem" viewBox="0 0 24 24" fill="none" stroke="currentColor" stroke-width="2" stroke-linecap="round" stroke-linejoin="round">
    <polygon points="6 3 18 3 22 9 12 22 2 9"/>
    <polyline points="2 9 12 14 22 9"/>
    <line x1="12" y1="3" x2="12" y2="14"/>
    <line x1="6" y1="3" x2="2" y2="9"/>
    <line x1="18" y1="3" x2="22" y2="9"/>
  </symbol>

  <!-- Animais (escudos de time) -->
  <symbol id="lion" viewBox="0 0 24 24" fill="none" stroke="currentColor" stroke-width="1.8" stroke-linecap="round" stroke-linejoin="round">
    <circle cx="12" cy="11" r="5"/>
    <path d="M12 2c-1 0-2 .5-2 1.5S11 5 12 5s2-.5 2-1.5S13 2 12 2z"/>
    <path d="M7 7c-1.5 0-3 .5-3 2s1 2 2 3"/>
    <path d="M17 7c1.5 0 3 .5 3 2s-1 2-2 3"/>
    <path d="M9 16c0 2 1 4 3 5 2-1 3-3 3-5"/>
    <path d="M9 11c0 1.66 1.34 3 3 3s3-1.34 3-3"/>
  </symbol>

  <symbol id="eagle" viewBox="0 0 24 24" fill="none" stroke="currentColor" stroke-width="1.8" stroke-linecap="round" stroke-linejoin="round">
    <path d="M2 12c2-4 5-6 8-6 1 0 2 .5 2 .5V4l2 2 2-2v2.5S17 6 18 6c3 0 4 3 4 6"/>
    <path d="M8 18c1 2 2.5 3 4 3s3-1 4-3"/>
    <path d="M10 12c0 1.1.9 2 2 2s2-.9 2-2"/>
    <path d="M5 14c-1 0-2 .5-3 2 1 0 2 .5 3 0"/>
    <path d="M19 14c1 0 2 .5 3 2-1 0-2 .5-3 0"/>
  </symbol>

  <symbol id="dragon" viewBox="0 0 24 24" fill="none" stroke="currentColor" stroke-width="1.8" stroke-linecap="round" stroke-linejoin="round">
    <path d="M12 2c-2 0-4 2-4 4 0 1 .5 2 1 3L5 14c-1 2-1 4 1 5l3-3 1 3c1 1 2 2 2 3 0-1 1-2 2-3l1-3 3 3c2-1 2-3 1-5l-4-5c.5-1 1-2 1-3 0-2-2-4-4-4z"/>
  </symbol>

  <symbol id="butterfly" viewBox="0 0 24 24" fill="none" stroke="currentColor" stroke-width="1.8" stroke-linecap="round" stroke-linejoin="round">
    <path d="M12 4c0 0-4-3-7-1S2 8 4 10s5 2 8 0"/>
    <path d="M12 4c0 0 4-3 7-1s3 5 1 7-5 2-8 0"/>
    <path d="M12 4v16"/>
    <path d="M9 20c1-1 2-3 3-3s2 2 3 3"/>
  </symbol>

  <!-- Faces de habilidade (skill level) -->
  <symbol id="skill-1" viewBox="0 0 24 24" fill="none" stroke="currentColor" stroke-width="2" stroke-linecap="round">
    <!-- Neutro 😐 -->
    <circle cx="12" cy="12" r="10"/>
    <line x1="8" y1="15" x2="16" y2="15"/>
    <line x1="9" y1="9" x2="9.01" y2="9"/>
    <line x1="15" y1="9" x2="15.01" y2="9"/>
  </symbol>

  <symbol id="skill-2" viewBox="0 0 24 24" fill="none" stroke="currentColor" stroke-width="2" stroke-linecap="round">
    <!-- Levemente feliz 🙂 -->
    <circle cx="12" cy="12" r="10"/>
    <path d="M8 14s1.5 2 4 2 4-2 4-2"/>
    <line x1="9" y1="9" x2="9.01" y2="9"/>
    <line x1="15" y1="9" x2="15.01" y2="9"/>
  </symbol>

  <symbol id="skill-3" viewBox="0 0 24 24" fill="none" stroke="currentColor" stroke-width="2" stroke-linecap="round">
    <!-- Feliz 😊 -->
    <circle cx="12" cy="12" r="10"/>
    <path d="M8 13s1.5 3 4 3 4-3 4-3"/>
    <line x1="9" y1="9" x2="9.01" y2="9"/>
    <line x1="15" y1="9" x2="15.01" y2="9"/>
  </symbol>

  <symbol id="skill-4" viewBox="0 0 24 24" fill="none" stroke="currentColor" stroke-width="2" stroke-linecap="round">
    <!-- Óculos 😎 -->
    <circle cx="12" cy="12" r="10"/>
    <path d="M8 14s1.5 2 4 2 4-2 4-2"/>
    <rect x="5" y="8" width="5" height="3" rx="1"/>
    <rect x="14" y="8" width="5" height="3" rx="1"/>
    <line x1="10" y1="9.5" x2="14" y2="9.5"/>
  </symbol>

  <symbol id="injured" viewBox="0 0 24 24" fill="none" stroke="currentColor" stroke-width="2" stroke-linecap="round">
    <!-- Machucado 🤕 -->
    <circle cx="12" cy="12" r="10"/>
    <path d="M16 16s-1.5-2-4-2-4 2-4 2"/>
    <rect x="8" y="5" width="8" height="3" rx="1"/>
    <line x1="10" y1="5" x2="10" y2="8"/>
    <line x1="14" y1="5" x2="14" y2="8"/>
  </symbol>

  <symbol id="suspended" viewBox="0 0 24 24" fill="none" stroke="currentColor" stroke-width="2" stroke-linecap="round">
    <!-- Suspenso — cartão vermelho -->
    <rect x="8" y="3" width="8" height="12" rx="1.5" fill="currentColor" stroke="none"/>
    <path d="M12 18v3"/>
    <path d="M9 21h6"/>
  </symbol>

  <symbol id="inactive" viewBox="0 0 24 24" fill="none" stroke="currentColor" stroke-width="2" stroke-linecap="round">
    <!-- Inativo — círculo vazio -->
    <circle cx="12" cy="12" r="9"/>
    <path d="M8 12h8"/>
  </symbol>

  <symbol id="active" viewBox="0 0 24 24" fill="none" stroke="currentColor" stroke-width="2" stroke-linecap="round">
    <!-- Ativo — círculo verde com check -->
    <circle cx="12" cy="12" r="9"/>
    <polyline points="9 12 11 14 15 10"/>
  </symbol>

  <!-- Tipos de partida -->
  <symbol id="handshake" viewBox="0 0 24 24" fill="none" stroke="currentColor" stroke-width="2" stroke-linecap="round" stroke-linejoin="round">
    <path d="M20.42 4.58a5.4 5.4 0 0 0-7.65 0l-.77.78-.77-.78a5.4 5.4 0 0 0-7.65 0C1.46 6.7 1.33 10.28 4 13l8 8 8-8c2.67-2.72 2.54-6.3.42-8.42z"/>
  </symbol>

  <symbol id="festival" viewBox="0 0 24 24" fill="none" stroke="currentColor" stroke-width="2" stroke-linecap="round" stroke-linejoin="round">
    <path d="M3 20h18"/>
    <path d="M5 20V8l7-5 7 5v12"/>
    <path d="M9 20v-8h6v8"/>
  </symbol>

  <symbol id="competition" viewBox="0 0 24 24" fill="none" stroke="currentColor" stroke-width="2" stroke-linecap="round" stroke-linejoin="round">
    <circle cx="12" cy="8" r="6"/>
    <path d="M15.477 12.89 17 22l-5-3-5 3 1.523-9.11"/>
  </symbol>

</svg>
